REM MD5 2a6deed4180a5b60804048ba6200ff6c
FILE "Euro Demo Six (Germany).bin" BINARY
  TRACK 01 MODE2/2352
    INDEX 01 00:00:00
  TRACK 02 AUDIO
    INDEX 00 25:06:22
    INDEX 01 25:08:22
  TRACK 03 AUDIO
    INDEX 00 26:11:09
    INDEX 01 26:13:09
REM LEADOUT 29:23:18
